<?xml version="1.0" standalone="no"?>
<!DOCTYPE svg PUBLIC "-//W3C//DTD SVG 20010904//EN"
 "http://www.w3.org/TR/2001/REC-SVG-20010904/DTD/svg10.dtd">
<svg version="1.0" xmlns="http://www.w3.org/2000/svg"
 width="260.000000pt" height="260.000000pt" viewBox="0 0 260.000000 260.000000"
 preserveAspectRatio="xMidYMid meet">
<metadata>
Created by potrace 1.11, written by Peter Selinger 2001-2013
</metadata>
<g transform="translate(0.000000,260.000000) scale(0.100000,-0.100000)"
fill="#000000" stroke="none">
<path d="M1101 2494 c-371 -61 -720 -320 -890 -661 -37 -74 -88 -210 -97 -258
-2 -11 -10 -54 -18 -95 -9 -50 -13 -124 -11 -220 3 -153 4 -160 35 -282 73
-285 258 -545 511 -716 105 -71 315 -159 420 -176 19 -3 56 -10 83 -15 76 -14
320 -7 411 13 461 100 825 439 939 876 37 140 37 143 41 295 3 107 -1 165 -16
249 -87 481 -456 866 -939 977 -118 27 -343 33 -469 13z m449 -163 c410 -103
705 -404 806 -821 21 -85 26 -313 9 -407 -92 -512 -536 -889 -1052 -891 -472
-2 -886 299 -1031 748 -189 585 169 1222 768 1369 147 36 363 37 500 2z"/>
<path d="M1371 1460 l0 -680 104 0 105 0 -3 60 c-2 33 0 60 3 60 4 0 19 -16
34 -35 43 -54 138 -96 232 -102 316 -22 515 244 440 586 -19 85 -96 195 -174
250 -139 97 -357 84 -487 -30 l-35 -31 0 301 0 301 -109 0 -110 0 0 -680z
m560 -10 c121 -45 183 -182 145 -314 -41 -141 -187 -214 -333 -165 -48 16
-112 75 -134 124 -98 222 100 440 322 355z"/>
<path d="M676 1659 c-101 -16 -213 -66 -259 -117 -16 -17 -13 -22 38 -72 48
-47 58 -53 73 -42 35 26 122 63 164 70 56 10 144 -4 184 -29 37 -22 64 -73 64
-118 0 -25 -4 -31 -22 -32 -194 -4 -284 -14 -361 -40 -145 -49 -210 -131 -208
-264 1 -114 69 -198 190 -236 133 -41 263 -16 349 67 57 55 57 55 52 -33 l-2
-33 100 0 99 0 -2 308 c-3 324 -4 339 -36 410 -58 126 -227 190 -423 161z
m252 -553 c-8 -96 -52 -153 -138 -176 -102 -28 -212 13 -225 84 -18 95 87 148
304 153 l64 1 -5 -62z"/>
<path d="M1448 511 c-7 -2 -22 -12 -33 -21 -28 -26 -112 -47 -168 -44 -50 4
-137 36 -137 52 0 5 -35 9 -77 8 -76 -2 -78 -3 -75 -27 25 -177 363 -245 549
-110 50 36 102 139 71 142 -34 4 -119 4 -130 0z"/>
</g>
</svg>
