<?xml version="1.0" standalone="no"?>
<!DOCTYPE svg PUBLIC "-//W3C//DTD SVG 20010904//EN"
 "http://www.w3.org/TR/2001/REC-SVG-20010904/DTD/svg10.dtd">
<svg version="1.0" xmlns="http://www.w3.org/2000/svg"
 width="266.000000pt" height="266.000000pt" viewBox="0 0 266.000000 266.000000"
 preserveAspectRatio="xMidYMid meet">
<metadata>
Created by potrace 1.11, written by Peter Selinger 2001-2013
</metadata>
<g transform="translate(0.000000,266.000000) scale(0.100000,-0.100000)"
fill="#000000" stroke="none">
<path d="M446 1828 c-38 -100 -77 -202 -86 -227 -62 -166 -222 -579 -230 -596
-14 -30 -130 -340 -130 -348 0 -4 91 -6 202 -4 l203 2 163 425 c89 234 202
531 251 660 49 129 92 243 96 253 7 16 -7 17 -196 17 l-204 0 -69 -182z"/>
<path d="M1334 1948 c13 -35 99 -261 191 -503 206 -540 200 -524 255 -672 l45
-122 198 1 c221 1 287 9 367 40 76 30 109 53 153 107 55 67 79 140 80 236 1
98 -7 138 -38 190 -41 70 -119 127 -192 141 -18 3 -33 7 -33 8 0 1 24 27 53
57 58 60 77 105 84 205 12 147 -53 278 -162 330 -86 40 -124 43 -582 44 l-443
0 24 -62z m786 -228 c30 -16 60 -69 60 -106 0 -100 -67 -142 -212 -135 -16 1
-18 14 -18 132 l0 132 74 -6 c41 -3 84 -10 96 -17z m77 -527 c60 -30 80 -69
74 -150 -2 -34 -46 -78 -93 -92 -24 -8 -85 -16 -135 -18 l-93 -5 0 147 0 148
105 -6 c72 -4 117 -11 142 -24z"/>
<path d="M1087 1553 c-8 -26 -43 -126 -76 -220 l-60 -173 54 -1 c30 0 71 -1
90 -1 19 0 66 1 104 1 l68 1 -75 213 c-41 116 -78 216 -82 220 -4 4 -14 -14
-23 -40z"/>
<path d="M832 792 c-17 -48 -33 -99 -37 -113 l-6 -26 329 -1 329 -1 -32 97
c-18 53 -36 105 -40 114 -6 16 -29 18 -260 18 l-253 0 -30 -88z"/>
</g>
</svg>
